<svg xmlns="http://www.w3.org/2000/svg" viewBox="0 0 24 24" width="200" height="200">
    <path fill="white" d="M12 .297C5.373.297 0 5.67 0 12.297c0 5.439 3.579 10.053 8.547 11.684.625.115.854-.266.854-.593 0-.292-.011-1.064-.017-2.09-3.472.752-4.203-1.676-4.203-1.676-.567-1.405-1.384-1.778-1.384-1.778-1.135-.773.086-.757.086-.757 1.254.088 1.914 1.29 1.914 1.29 1.116 1.913 2.928 1.361 3.64 1.04.113-.805.438-1.358.797-1.67-2.785-.316-5.716-1.393-5.716-6.202 0-1.371.489-2.492 1.289-3.368-.129-.317-.56-1.595.123-3.32 0 0 1.053-.336 3.44 1.288a11.81 11.81 0 013.072-.416c1.042.003 2.096.14 3.072.416 2.385-1.624 3.437-1.288 3.437-1.288.686 1.725.254 3.003.125 3.32.804.876 1.287 1.997 1.287 3.368 0 4.818-2.934 5.881-5.727 6.191.451.388.853 1.15.853 2.319 0 1.674-.015 3.023-.015 3.437 0 .328.224.713.862.592C20.427 22.345 24 17.731 24 12.297 24 5.67 18.627.297 12 .297z"/>
</svg>
